# xmcd
#
# Track frame offsets: 
#        150
#        16781
#        31235
#        49023
#        65234
#        83418
#        98976
#        117987
#        128324
#        137566
#        146711
#        163299
#        183878
#
# Disc length: 4434 seconds
#
# Revision: 1
# Processed by: cddbd v1.5.2PL0 Copyright (c) Steve Scherf et al.
# Submitted via: ExactAudioCopy v0.99pb4
#
DISCID=a711500d
DTITLE=Umalali - The Garifuna Women's Project
DYEAR=2008
DGENRE=Ethnic
TTITLE0=Nibari (My Grandchild)
TTITLE1=MéRua
TTITLE2=Yündüya Weyu (The Sun Has Set)
TTITLE3=BarüBana Yagien (Take me Away)
TTITLE4=Hattie
TTITLE5=Luwübüri Sigala (Hills of Tegucigalpa)
TTITLE6=Anaha ya (Here I Am)
TTITLE7=Tuguchili Elia (Elia's Father)
TTITLE8=Fuleisei (Favours)
TTITLE9=Uruwei (The King)
TTITLE10=ÁFayaháDina (I Have Traveled)
TTITLE11=Lirun Biganute (Sad News)
TTITLE12=Enhanced
EXTD=
EXTT0=
EXTT1=
EXTT2=
EXTT3=
EXTT4=
EXTT5=
EXTT6=
EXTT7=
EXTT8=
EXTT9=
EXTT10=
EXTT11=
EXTT12=
PLAYORDER=
